<svg xmlns="http://www.w3.org/2000/svg" width="168" height="255" fill="none"><path fill="#fff" stroke="#000" stroke-width="5" d="M31.235 8.362c1.214-.393 3.354.033 6.619 2.863 3.13 2.714 6.684 7.133 10.415 13.039 7.44 11.778 15.285 28.98 21.71 48.805 6.425 19.825 10.162 38.358 11.044 52.262.442 6.971.157 12.634-.787 16.669-.984 4.207-2.467 5.808-3.681 6.201-1.215.394-3.355-.032-6.62-2.863-3.131-2.714-6.684-7.133-10.415-13.039-7.44-11.778-15.286-28.979-21.711-48.804-6.425-19.826-10.16-38.359-11.043-52.263-.442-6.971-.158-12.634.786-16.668.985-4.208 2.468-5.809 3.683-6.202Zm103.319 0c-1.215-.393-3.355.033-6.62 2.863-3.13 2.714-6.684 7.133-10.414 13.039-7.441 11.778-15.286 28.98-21.711 48.805-6.425 19.825-10.162 38.358-11.044 52.262-.442 6.971-.157 12.634.787 16.669.984 4.207 2.467 5.808 3.682 6.201 1.214.394 3.354-.032 6.62-2.863 3.13-2.714 6.683-7.133 10.414-13.039 7.44-11.778 15.286-28.979 21.711-48.804 6.425-19.826 10.161-38.359 11.043-52.263.442-6.971.158-12.634-.786-16.668-.984-4.208-2.468-5.809-3.682-6.202Z"/><circle cx="83.5" cy="134.5" r="46" fill="#fff" stroke="#000" stroke-width="5"/><path fill="#000" stroke="#000" d="M84 134.5c23.174 0 44.142 1.79 59.304 4.678 7.584 1.445 13.691 3.159 17.889 5.05 2.101.946 3.697 1.924 4.76 2.914 1.063.989 1.547 1.945 1.547 2.858s-.484 1.869-1.547 2.859c-1.063.989-2.659 1.967-4.76 2.914-4.198 1.89-10.305 3.605-17.889 5.049-15.162 2.888-36.13 4.678-59.304 4.678s-44.142-1.79-59.304-4.678c-7.584-1.444-13.691-3.159-17.89-5.049-2.1-.947-3.696-1.925-4.76-2.914C.985 151.869.5 150.913.5 150s.484-1.869 1.547-2.858c1.063-.99 2.659-1.968 4.76-2.914 4.198-1.891 10.305-3.605 17.89-5.05C39.857 136.29 60.825 134.5 84 134.5Z"/><path fill="#000" stroke="#000" d="M153 251.229c-53.957 3.696-84.17 3.693-138 0L29.247 143h109.785L153 251.229Z"/><circle cx="6" cy="6" r="3" stroke="#000" stroke-width="6" transform="matrix(1 0 0 -1 58 122)"/><circle cx="6" cy="6" r="3" stroke="#000" stroke-width="6" transform="matrix(1 0 0 -1 95 122)"/><path stroke="#000" stroke-width="3" d="M78.917 126.75h6.834l-3.417 3.196-3.417-3.196Z"/></svg>