<svg width="168" height="255" viewBox="0 0 168 255" fill="none" xmlns="http://www.w3.org/2000/svg">
<path d="M31.2345 8.36179C32.4487 7.96857 34.5887 8.3949 37.8538 11.2252C40.9845 13.9391 44.5377 18.3581 48.2685 24.2637C55.7093 36.0418 63.554 53.2434 69.9791 73.0688C76.4042 92.8941 80.1406 111.427 81.023 125.331C81.4653 132.302 81.1796 137.965 80.2359 142C79.2517 146.207 77.7686 147.808 76.5545 148.201C75.3404 148.595 73.1998 148.169 69.9343 145.338C66.8036 142.624 63.2513 138.205 59.5205 132.299C52.0797 120.521 44.2341 103.32 37.809 83.4946C31.3838 63.6692 27.6484 45.136 26.7661 31.2324C26.3237 24.261 26.6084 18.5981 27.5522 14.5638C28.5365 10.3558 30.0204 8.75527 31.2345 8.36179Z" fill="white" stroke="black" stroke-width="5"/>
<path d="M134.554 8.36179C133.339 7.96857 131.199 8.3949 127.934 11.2252C124.804 13.9391 121.25 18.3581 117.52 24.2637C110.079 36.0418 102.234 53.2434 95.809 73.0688C89.3839 92.8941 85.6475 111.427 84.7651 125.331C84.3228 132.302 84.6084 137.965 85.5522 142C86.5364 146.207 88.0195 147.808 89.2336 148.201C90.4477 148.595 92.5883 148.169 95.8538 145.338C98.9845 142.624 102.537 138.205 106.268 132.299C113.708 120.521 121.554 103.32 127.979 83.4946C134.404 63.6692 138.14 45.136 139.022 31.2324C139.464 24.261 139.18 18.5981 138.236 14.5638C137.252 10.3558 135.768 8.75527 134.554 8.36179Z" fill="white" stroke="black" stroke-width="5"/>
<circle cx="83.5" cy="134.5" r="46" fill="white" stroke="black" stroke-width="5"/>
<path d="M84 134.5C107.174 134.5 128.142 136.29 143.304 139.178C150.888 140.623 156.995 142.337 161.193 144.228C163.294 145.174 164.89 146.152 165.953 147.142C167.016 148.131 167.5 149.087 167.5 150C167.5 150.913 167.016 151.869 165.953 152.859C164.89 153.848 163.294 154.826 161.193 155.773C156.995 157.663 150.888 159.378 143.304 160.822C128.142 163.71 107.174 165.5 84 165.5C60.8256 165.5 39.8581 163.71 24.6963 160.822C17.1116 159.378 11.005 157.663 6.80664 155.773C4.70579 154.826 3.10972 153.848 2.04688 152.859C0.98378 151.869 0.5 150.913 0.5 150C0.5 149.087 0.98378 148.131 2.04688 147.142C3.10972 146.152 4.70579 145.174 6.80664 144.228C11.005 142.337 17.1116 140.623 24.6963 139.178C39.8581 136.29 60.8256 134.5 84 134.5Z" fill="black" stroke="black"/>
<path d="M153 251.229C99.0435 254.925 68.8296 254.922 15 251.229L29.247 143H139.032L153 251.229Z" fill="black" stroke="black"/>
<circle cx="6" cy="6" r="3" transform="matrix(1 0 0 -1 58 122)" stroke="black" stroke-width="6"/>
<circle cx="6" cy="6" r="3" transform="matrix(1 0 0 -1 95 122)" stroke="black" stroke-width="6"/>
<path d="M78.9167 126.75L85.7507 126.75L82.3337 129.946L78.9167 126.75Z" stroke="black" stroke-width="3"/>
</svg>
